<svg width="54" height="54" viewBox="0 0 54 54" fill="none" xmlns="http://www.w3.org/2000/svg">
<path d="M27 0.5C41.6355 0.5 53.5 12.3645 53.5 27C53.5 41.6355 41.6355 53.5 27 53.5C12.3645 53.5 0.5 41.6355 0.5 27C0.5 12.3645 12.3645 0.5 27 0.5Z" fill="white"/>
<path d="M27 0.5C41.6355 0.5 53.5 12.3645 53.5 27C53.5 41.6355 41.6355 53.5 27 53.5C12.3645 53.5 0.5 41.6355 0.5 27C0.5 12.3645 12.3645 0.5 27 0.5Z" stroke="#F7F7F7"/>
<g clip-path="url(#clip0_92_322)">
<path fill-rule="evenodd" clip-rule="evenodd" d="M36.6 27.2271C36.6 26.518 36.5364 25.8362 36.4182 25.1816H27V29.0498H32.3818C32.15 30.2998 31.4455 31.3589 30.3864 32.068V34.5771H33.6182C35.5091 32.8362 36.6 30.2725 36.6 27.2271Z" fill="#4285F4"/>
<path fill-rule="evenodd" clip-rule="evenodd" d="M26.9998 36.9999C29.6998 36.9999 31.9635 36.1044 33.618 34.5772L30.3862 32.0681C29.4907 32.6681 28.3453 33.0226 26.9998 33.0226C24.3953 33.0226 22.1907 31.2635 21.4044 28.8999H18.0635V31.4908C19.7089 34.759 23.0907 36.9999 26.9998 36.9999Z" fill="#34A853"/>
<path fill-rule="evenodd" clip-rule="evenodd" d="M21.4045 28.9002C21.2045 28.3002 21.0909 27.6593 21.0909 27.0002C21.0909 26.3411 21.2045 25.7002 21.4045 25.1002V22.5093H18.0636C17.3864 23.8593 17 25.3866 17 27.0002C17 28.6138 17.3864 30.1411 18.0636 31.4911L21.4045 28.9002Z" fill="#FBBC05"/>
<path fill-rule="evenodd" clip-rule="evenodd" d="M26.9998 20.9773C28.468 20.9773 29.7862 21.4818 30.8226 22.4727L33.6907 19.6045C31.9589 17.9909 29.6953 17 26.9998 17C23.0907 17 19.7089 19.2409 18.0635 22.5091L21.4044 25.1C22.1907 22.7364 24.3953 20.9773 26.9998 20.9773Z" fill="#EA4335"/>
</g>
<defs>
<clipPath id="clip0_92_322">
<rect width="20" height="20" fill="white" transform="translate(17 17)"/>
</clipPath>
</defs>
</svg>
