<svg width="14" height="14" viewBox="0 0 14 14" fill="none" xmlns="http://www.w3.org/2000/svg">
<mask id="path-1-inside-1_84_169" fill="white">
<path fill-rule="evenodd" clip-rule="evenodd" d="M7.00002 1.16672C3.77827 1.16672 1.16669 3.7783 1.16669 7.00005C1.16619 7.85952 1.35563 8.70849 1.72144 9.48622L1.17894 12.1328C1.15962 12.2273 1.16404 12.3251 1.1918 12.4175C1.21955 12.5099 1.26978 12.5939 1.33798 12.6621C1.40618 12.7303 1.49022 12.7805 1.58259 12.8083C1.67496 12.836 1.77278 12.8405 1.86727 12.8211L4.51385 12.2786C5.26869 12.6345 6.11219 12.8328 7.00002 12.8328C10.2218 12.8328 12.8334 10.2218 12.8334 6.99947C12.8334 3.7783 10.2218 1.16614 7.00002 1.16614"/>
</mask>
<path d="M1.16669 7.00005L2.16669 7.00063V7.00005H1.16669ZM1.72144 9.48622L2.70107 9.68703L2.76782 9.36139L2.62634 9.0606L1.72144 9.48622ZM1.17894 12.1328L0.199307 11.932L0.199194 11.9325L1.17894 12.1328ZM1.86727 12.8211L2.06753 13.8009L2.06808 13.8008L1.86727 12.8211ZM4.51385 12.2786L4.94026 11.3741L4.63915 11.2322L4.31305 11.299L4.51385 12.2786ZM7.00002 1.16672V0.166721C3.22599 0.166721 0.166688 3.22602 0.166688 7.00005H1.16669H2.16669C2.16669 4.33059 4.33056 2.16672 7.00002 2.16672V1.16672ZM1.16669 7.00005L0.166688 6.99948C0.166109 8.00629 0.388016 9.00078 0.816538 9.91185L1.72144 9.48622L2.62634 9.0606C2.32324 8.41619 2.16628 7.71276 2.16669 7.00063L1.16669 7.00005ZM1.72144 9.48622L0.741807 9.28541L0.199307 11.932L1.17894 12.1328L2.15857 12.3336L2.70107 9.68703L1.72144 9.48622ZM1.17894 12.1328L0.199194 11.9325C0.146769 12.189 0.15876 12.4545 0.234094 12.7052L1.1918 12.4175L2.1495 12.1297C2.16932 12.1957 2.17248 12.2656 2.15868 12.3331L1.17894 12.1328ZM1.1918 12.4175L0.234094 12.7052C0.309427 12.956 0.445753 13.1841 0.630869 13.3692L1.33798 12.6621L2.04508 11.955C2.0938 12.0037 2.12967 12.0637 2.1495 12.1297L1.1918 12.4175ZM1.33798 12.6621L0.630869 13.3692C0.815985 13.5543 1.04411 13.6906 1.29483 13.766L1.58259 12.8083L1.87036 11.8506C1.93633 11.8704 1.99637 11.9063 2.04508 11.955L1.33798 12.6621ZM1.58259 12.8083L1.29483 13.766C1.54555 13.8413 1.81104 13.8533 2.06753 13.8009L1.86727 12.8211L1.66701 11.8414C1.73451 11.8276 1.80438 11.8308 1.87036 11.8506L1.58259 12.8083ZM1.86727 12.8211L2.06808 13.8008L4.71466 13.2583L4.51385 12.2786L4.31305 11.299L1.66647 11.8415L1.86727 12.8211ZM4.51385 12.2786L4.08745 13.1832C4.97315 13.6007 5.96202 13.8328 7.00002 13.8328V12.8328V11.8328C6.26235 11.8328 5.56423 11.6682 4.94026 11.3741L4.51385 12.2786ZM7.00002 12.8328V13.8328C10.774 13.8328 13.8334 10.7742 13.8334 6.99947H12.8334H11.8334C11.8334 9.66945 9.66955 11.8328 7.00002 11.8328V12.8328ZM12.8334 6.99947H13.8334C13.8334 3.22608 10.7741 0.166138 7.00002 0.166138V1.16614V2.16614C9.66942 2.16614 11.8334 4.33052 11.8334 6.99947H12.8334Z" fill="#4F88A2" mask="url(#path-1-inside-1_84_169)"/>
</svg>
