<svg width="14" height="14" viewBox="0 0 14 14" fill="none" xmlns="http://www.w3.org/2000/svg">
<path d="M12.0406 6.28363C12.2461 8.7337 10.4743 11.8253 10.4743 11.8253C10.4743 11.8253 5.622 13.4084 2.33333 12.25C2.17862 12.25 2.03025 12.1885 1.92085 12.0791C1.81146 11.9697 1.75 11.8213 1.75 11.6666V5.88813C1.74988 5.78323 1.77804 5.68024 1.83152 5.59C1.88501 5.49977 1.96184 5.42562 2.05392 5.37538L3.99613 4.31663C4.6247 3.97377 5.14298 3.45944 5.49063 2.8335L6.26617 1.43788C6.35892 1.27046 6.53538 1.16663 6.727 1.16663H6.797C7.1138 1.1668 7.41759 1.29268 7.64167 1.51663C7.88656 1.76152 8.03671 2.08529 8.06546 2.43042L8.09229 2.75213C8.14158 3.34421 8.09871 3.94067 7.96513 4.51963L7.81929 5.15079C7.8085 5.19756 7.8084 5.24617 7.81899 5.29299C7.82959 5.3398 7.85061 5.38363 7.8805 5.42119C7.91038 5.45875 7.94835 5.48909 7.99159 5.50994C8.03483 5.5308 8.08221 5.54163 8.13021 5.54163C9.54166 5.17205 10.2612 5.22048 11.4785 5.54163C11.5688 5.54152 11.6578 5.56233 11.7386 5.60243C11.8194 5.64254 11.8898 5.70083 11.9442 5.77274C11.9987 5.84465 12.0358 5.92821 12.0525 6.01686C12.0692 6.1055 12.0651 6.19682 12.0406 6.28363Z" stroke="#EA6163" stroke-linecap="round" stroke-linejoin="round"/>
</svg>
