<svg width="29" height="29" viewBox="0 0 29 29" fill="none" xmlns="http://www.w3.org/2000/svg">
<path d="M8.17147 17.1883V8.45331H2.81775C1.26799 8.45331 0 9.7213 0 11.2711V19.7243C0 21.2741 1.26799 22.5421 2.81775 22.5421H4.22662V26.7687L8.45325 22.5421H15.4976C17.0474 22.5421 18.3154 21.2741 18.3154 19.7243V17.1602C18.2227 17.1795 18.1283 17.1894 18.0336 17.1897H8.17147V17.1883ZM25.3597 1.40894H12.6799C11.1301 1.40894 9.86212 2.67692 9.86212 4.22668V15.4977H19.7242L23.9509 19.7243V15.4977H25.3597C26.9095 15.4977 28.1775 14.2311 28.1775 12.6799V4.22668C28.1775 2.67692 26.9095 1.40894 25.3597 1.40894Z" fill="#9A9A9A"/>
</svg>
