<svg width="29" height="29" viewBox="0 0 29 29" fill="none" xmlns="http://www.w3.org/2000/svg">
<path fill-rule="evenodd" clip-rule="evenodd" d="M14.0888 3.52222C11.2864 3.52222 8.59871 4.63548 6.61709 6.61709C4.63548 8.5987 3.52222 11.2864 3.52222 14.0888C3.52222 16.8912 4.63548 19.5788 6.61709 21.5605C8.59871 23.5421 11.2864 24.6553 14.0888 24.6553H19.3721C21.0134 24.6553 21.8341 24.6553 22.481 24.3876C22.9084 24.2106 23.2968 23.9511 23.624 23.624C23.9511 23.2968 24.2106 22.9084 24.3876 22.481C24.6553 21.8341 24.6553 21.0134 24.6553 19.3721V14.0888C24.6553 11.2864 23.5421 8.5987 21.5605 6.61709C19.5788 4.63548 16.8912 3.52222 14.0888 3.52222ZM9.39253 12.9147C9.39253 12.6033 9.51622 12.3047 9.7364 12.0845C9.95658 11.8643 10.2552 11.7407 10.5666 11.7407H17.611C17.9223 11.7407 18.221 11.8643 18.4412 12.0845C18.6613 12.3047 18.785 12.6033 18.785 12.9147C18.785 13.2261 18.6613 13.5247 18.4412 13.7449C18.221 13.9651 17.9223 14.0888 17.611 14.0888H10.5666C10.2552 14.0888 9.95658 13.9651 9.7364 13.7449C9.51622 13.5247 9.39253 13.2261 9.39253 12.9147ZM12.9147 17.611C12.9147 17.2996 13.0384 17.001 13.2586 16.7808C13.4788 16.5606 13.7774 16.4369 14.0888 16.4369H17.611C17.9223 16.4369 18.221 16.5606 18.4412 16.7808C18.6613 17.001 18.785 17.2996 18.785 17.611C18.785 17.9223 18.6613 18.221 18.4412 18.4412C18.221 18.6613 17.9223 18.785 17.611 18.785H14.0888C13.7774 18.785 13.4788 18.6613 13.2586 18.4412C13.0384 18.221 12.9147 17.9223 12.9147 17.611Z" fill="#9A9A9A"/>
</svg>
