<svg width="29" height="29" viewBox="0 0 29 29" fill="none" xmlns="http://www.w3.org/2000/svg">
<path fill-rule="evenodd" clip-rule="evenodd" d="M9.39253 8.21847C9.39253 6.97294 9.88731 5.77843 10.768 4.89772C11.6487 4.017 12.8433 3.52222 14.0888 3.52222C15.3343 3.52222 16.5288 4.017 17.4095 4.89772C18.2902 5.77843 18.785 6.97294 18.785 8.21847C18.785 9.46399 18.2902 10.6585 17.4095 11.5392C16.5288 12.4199 15.3343 12.9147 14.0888 12.9147C12.8433 12.9147 11.6487 12.4199 10.768 11.5392C9.88731 10.6585 9.39253 9.46399 9.39253 8.21847ZM9.39253 15.2628C7.83562 15.2628 6.34249 15.8813 5.24159 16.9822C4.14069 18.0831 3.52222 19.5762 3.52222 21.1332C3.52222 22.0673 3.8933 22.9632 4.55384 23.6237C5.21438 24.2843 6.11026 24.6553 7.0444 24.6553H21.1332C22.0673 24.6553 22.9632 24.2843 23.6237 23.6237C24.2843 22.9632 24.6553 22.0673 24.6553 21.1332C24.6553 19.5762 24.0369 18.0831 22.936 16.9822C21.8351 15.8813 20.3419 15.2628 18.785 15.2628H9.39253Z" fill="#9A9A9A"/>
</svg>
