<svg width="29" height="29" viewBox="0 0 29 29" fill="none" xmlns="http://www.w3.org/2000/svg">
<path d="M24.6553 23.4813C24.6553 23.7927 24.5316 24.0914 24.3115 24.3115C24.0913 24.5317 23.7927 24.6554 23.4813 24.6554H4.69628C4.3849 24.6554 4.08627 24.5317 3.86609 24.3115C3.64591 24.0914 3.52222 23.7927 3.52222 23.4813V11.142C3.52209 10.963 3.56286 10.7865 3.6414 10.6257C3.71995 10.465 3.83419 10.3243 3.97541 10.2144L13.3679 2.90826C13.574 2.74793 13.8277 2.66089 14.0888 2.66089C14.3499 2.66089 14.6036 2.74793 14.8097 2.90826L24.2022 10.2144C24.3434 10.3243 24.4576 10.465 24.5362 10.6257C24.6147 10.7865 24.6555 10.963 24.6553 11.142V23.4813Z" fill="#9A9A9A"/>
</svg>
